<svg width="135" height="135" viewBox="0 0 135 135" fill="none" xmlns="http://www.w3.org/2000/svg">
<path d="M28.125 82.035H32.3438C32.3438 80.3582 31.3507 78.84 29.8141 78.1689L28.125 82.035ZM106.875 82.035L105.186 78.1689C103.649 78.84 102.656 80.3582 102.656 82.035H106.875ZM88.5938 39.375C88.5938 41.7049 90.4826 43.5937 92.8125 43.5937C95.1424 43.5937 97.0313 41.7049 97.0313 39.375H88.5938ZM37.9688 39.375C37.9688 41.7049 39.8576 43.5937 42.1875 43.5937C44.5174 43.5937 46.4063 41.7049 46.4063 39.375H37.9688ZM78.75 119.531C76.4201 119.531 74.5313 121.42 74.5313 123.75C74.5313 126.08 76.4201 127.969 78.75 127.969V119.531ZM56.25 127.969C58.5799 127.969 60.4688 126.08 60.4688 123.75C60.4688 121.42 58.5799 119.531 56.25 119.531V127.969ZM39.375 23.9062C21.512 23.9062 7.03127 38.387 7.03127 56.25H15.4688C15.4688 43.0469 26.172 32.3437 39.375 32.3437V23.9062ZM95.625 32.3437C108.828 32.3437 119.531 43.0469 119.531 56.25H127.969C127.969 38.387 113.488 23.9062 95.625 23.9062V32.3437ZM50.625 119.531C45.2025 119.531 41.5599 119.522 38.8428 119.157C36.2471 118.808 35.1362 118.205 34.4032 117.472L28.437 123.438C30.999 126 34.1872 127.045 37.7186 127.519C41.1286 127.978 45.441 127.969 50.625 127.969V119.531ZM23.9063 101.25C23.9063 106.434 23.8973 110.747 24.3558 114.157C24.8306 117.688 25.875 120.876 28.437 123.438L34.4032 117.472C33.6701 116.739 33.067 115.628 32.7181 113.032C32.3527 110.315 32.3438 106.672 32.3438 101.25H23.9063ZM102.656 101.25C102.656 106.672 102.647 110.315 102.282 113.032C101.933 115.628 101.33 116.739 100.597 117.472L106.563 123.438C109.125 120.876 110.17 117.688 110.644 114.157C111.103 110.747 111.094 106.434 111.094 101.25H102.656ZM84.375 127.969C89.559 127.969 93.8717 127.978 97.2816 127.519C100.813 127.045 104.001 126 106.563 123.438L100.597 117.472C99.864 118.205 98.7531 118.808 96.1571 119.157C93.4403 119.522 89.7975 119.531 84.375 119.531V127.969ZM39.375 32.3437C40.5771 32.3437 41.7558 32.4321 42.9058 32.6021L44.1396 24.2553C42.5824 24.0252 40.9913 23.9062 39.375 23.9062V32.3437ZM67.5 7.03125C54.5034 7.03125 43.478 15.4243 39.5274 27.0738L47.5179 29.7836C50.3427 21.4539 58.2278 15.4687 67.5 15.4687V7.03125ZM39.5274 27.0738C38.5156 30.0573 37.9688 33.2504 37.9688 36.5625H46.4063C46.4063 34.184 46.7983 31.9057 47.5179 29.7836L39.5274 27.0738ZM95.625 23.9062C94.0089 23.9062 92.4176 24.0252 90.8606 24.2553L92.0942 32.6021C93.2439 32.4321 94.4229 32.3437 95.625 32.3437V23.9062ZM67.5 15.4687C76.7723 15.4687 84.6574 21.4539 87.4823 29.7836L95.4726 27.0738C91.5221 15.4243 80.4966 7.03125 67.5 7.03125V15.4687ZM87.4823 29.7836C88.2017 31.9057 88.5938 34.184 88.5938 36.5625H97.0313C97.0313 33.2504 96.4845 30.0573 95.4726 27.0738L87.4823 29.7836ZM32.3438 101.25V82.035H23.9063V101.25H32.3438ZM29.8141 78.1689C21.362 74.4761 15.4688 66.0465 15.4688 56.25H7.03127C7.03127 69.5194 15.0216 80.9134 26.4359 85.9005L29.8141 78.1689ZM102.656 82.035V101.25H111.094V82.035H102.656ZM119.531 56.25C119.531 66.0465 113.638 74.4761 105.186 78.1689L108.564 85.9005C119.978 80.9134 127.969 69.5194 127.969 56.25H119.531ZM88.5938 36.5625V39.375H97.0313V36.5625H88.5938ZM37.9688 36.5625V39.375H46.4063V36.5625H37.9688ZM84.375 119.531H78.75V127.969H84.375V119.531ZM56.25 119.531H50.625V127.969H56.25V119.531Z" fill="#FF5A96"/>
<path d="M28.125 101.25H73.125M106.875 101.25H95.625" stroke="#FF5A96" stroke-width="6.25" stroke-linecap="round" stroke-linejoin="round"/>
</svg>
