<svg width="100" height="135" viewBox="0 0 100 135" fill="none" xmlns="http://www.w3.org/2000/svg">
<path d="M88.8889 26.6606H83.3333V9.91721C83.3333 6.47005 81.6667 3.51534 78.3333 1.54553C75 -0.424277 71.1111 -0.424278 67.7778 1.05308L3.33333 27.153C2.77778 27.153 2.77778 27.6455 2.22222 27.6455C1.66667 27.6455 1.66667 28.1379 1.66667 28.1379C0.555557 29.1228 0 30.1077 0 31.5851V125.151C0 130.568 5 135 11.1111 135H88.8889C95 135 100 130.568 100 125.151V36.5096C100 31.0926 95 26.6606 88.8889 26.6606ZM72.2222 78.368C72.2222 87.7246 69.4444 95.1114 64.4444 99.5435C60.5556 103.483 58.8889 108.408 59.4444 113.332L61.1111 125.151H38.8889L40.5556 113.332C41.1111 108.408 39.4444 103.483 35.5556 99.5435C30.5556 94.6189 27.7778 87.2322 27.7778 78.368V51.2832C27.7778 48.3285 30 46.3587 33.3333 46.3587C36.6667 46.3587 38.8889 48.3285 38.8889 51.2832V78.368C38.8889 79.3529 38.8889 80.3378 38.8889 80.8303H44.4444V51.2832C44.4444 48.3285 46.6667 46.3587 50 46.3587C53.3333 46.3587 55.5556 48.3285 55.5556 51.2832V80.8303H61.1111C61.1111 79.8454 61.1111 78.8605 61.1111 78.368V51.2832C61.1111 48.3285 63.3333 46.3587 66.6667 46.3587C70 46.3587 72.2222 48.3285 72.2222 51.2832V78.368ZM72.2222 26.6606H31.1111L72.2222 9.91721V26.6606Z" fill="#FF5A96"/>
</svg>
