<svg width="135" height="125" viewBox="0 0 135 125" fill="none" xmlns="http://www.w3.org/2000/svg">
<path d="M30.766 93.9299C23.6901 93.9299 17.9497 100.886 17.9497 109.463C17.9497 118.044 23.6901 125 30.766 125C37.844 125 43.5826 118.044 43.5826 109.463C43.5823 100.886 37.8437 93.9299 30.766 93.9299ZM30.766 116.458C27.5808 116.458 24.999 113.326 24.999 109.463C24.999 105.604 27.5808 102.475 30.766 102.475C33.9512 102.475 36.533 105.604 36.533 109.463C36.5328 113.326 33.9509 116.458 30.766 116.458Z" fill="#FF5A96"/>
<path d="M106.471 93.9299C99.3948 93.9299 93.6562 100.886 93.6562 109.463C93.6562 118.044 99.3948 125 106.471 125C113.548 125 119.287 118.044 119.287 109.463C119.287 100.886 113.548 93.9299 106.471 93.9299ZM106.471 116.458C103.287 116.458 100.706 113.326 100.706 109.463C100.706 105.604 103.287 102.475 106.471 102.475C109.656 102.475 112.237 105.604 112.237 109.463C112.237 113.326 109.656 116.458 106.471 116.458Z" fill="#FF5A96"/>
<path d="M52.7679 21.7893H23.8628C22.9239 21.7893 22.0285 22.2949 21.4291 23.1735L0.736172 53.2685C0.25998 53.9563 0 54.8275 0 55.7291V82.1269V95.9303C0 98.055 1.42093 99.7748 3.17197 99.7748H12.8867C15.9521 91.497 22.8063 85.7045 30.7663 85.7045C38.7281 85.7045 45.5802 91.497 48.6459 99.7748H55.9419V25.6342C55.9414 23.5091 54.5186 21.7893 52.7679 21.7893ZM11.5834 56.1245C11.5834 55.2139 11.8412 54.3308 12.3156 53.6251L25.5263 33.9074C26.1486 32.9784 27.082 32.4405 28.0663 32.4405H41.0081C42.8137 32.4405 44.2787 34.2155 44.2787 36.4071V58.7829C44.2787 60.9719 42.814 62.7473 41.0081 62.7473H14.8537C13.0475 62.7473 11.5831 60.9722 11.5831 58.7829L11.5834 56.1245Z" fill="#FF5A96"/>
<path d="M64.2125 88.9607C63.2261 88.9607 62.4293 89.9291 62.4293 91.1244V97.6134C62.4293 98.8071 63.2261 99.7748 64.2125 99.7748H88.5932C90.2759 95.2336 93.0946 91.4578 96.6138 88.9607H64.2125Z" fill="#FF5A96"/>
<path d="M132.991 88.9607H116.33C119.851 91.4581 122.669 95.2336 124.35 99.7748H132.991C133.978 99.7748 134.776 98.8071 134.776 97.6134V91.1244C134.776 89.9291 133.978 88.9607 132.991 88.9607Z" fill="#FF5A96"/>
<path d="M131.195 0H66.4566C64.3568 0 62.6532 2.06465 62.6532 4.61254V77.0679C62.6532 79.6158 64.3568 81.6805 66.4566 81.6805H131.195C133.296 81.6805 135 79.6158 135 77.0679V4.61254C135 2.06465 133.296 0 131.195 0ZM120.833 23.537H76.8221C75.8357 23.537 75.0368 22.5667 75.0368 21.3755V17.0503C75.0368 15.8546 75.8357 14.8866 76.8221 14.8866H120.833C121.818 14.8866 122.616 15.8546 122.616 17.0503V21.3755C122.616 22.5667 121.818 23.537 120.833 23.537ZM76.8221 36.5152H120.833C121.818 36.5152 122.616 37.4807 122.616 38.6767V43.0041C122.616 44.1953 121.818 45.1656 120.833 45.1656H76.8221C75.8357 45.1656 75.0368 44.1953 75.0368 43.0041V38.6767C75.0368 37.4807 75.8357 36.5152 76.8221 36.5152ZM76.8221 58.1435H120.833C121.818 58.1435 122.616 59.1093 122.616 60.305V64.6302C122.616 65.8213 121.818 66.7939 120.833 66.7939H76.8221C75.8357 66.7939 75.0368 65.821 75.0368 64.6302V60.305C75.0368 59.1093 75.8357 58.1435 76.8221 58.1435Z" fill="#FF5A96"/>
</svg>
